<svg width="313" height="286" viewBox="0 0 313 286" fill="none" xmlns="http://www.w3.org/2000/svg">
<path d="M221.486 0.021759C216.183 -0.156695 210.632 0.768588 205.066 2.57434C193.936 6.18586 182.272 13.2238 170.303 22.9684C165.611 26.7874 160.877 31.1529 156.128 35.7844C151.483 31.2703 146.847 27.0088 142.26 23.2742C130.299 13.5374 118.667 6.51004 107.561 2.90669C96.4556 -0.696594 85.4061 -0.808285 76.3307 4.43563C67.2552 9.6795 61.8277 19.3056 59.3933 30.7325C56.9584 42.1596 57.2134 55.7677 59.6591 71.0021C60.5082 76.2939 61.733 81.8455 63.1126 87.5009C57.927 89.0739 52.8911 90.7274 48.2213 92.5528C34.128 98.0618 22.4666 104.653 13.9749 112.495C5.48306 120.337 0 129.856 0 140.308C0 150.759 5.48306 160.264 13.9749 168.107C22.4666 175.95 34.128 182.554 48.2213 188.062C53.2148 190.014 58.6208 191.772 64.202 193.433C62.1944 200.94 60.5683 208.225 59.4596 215.13C57.0122 230.377 56.7538 243.987 59.1938 255.44C61.6344 266.893 67.0642 276.573 76.1844 281.843C85.3046 287.113 96.4041 286.984 107.535 283.372C118.666 279.761 130.316 272.736 142.286 262.991C146.934 259.208 151.635 254.891 156.341 250.308C161.068 254.917 165.793 259.257 170.462 263.058C182.422 272.795 194.067 279.822 205.173 283.425C216.279 287.029 227.315 287.14 236.391 281.896C245.466 276.653 250.893 267.027 253.328 255.599C255.762 244.172 255.494 230.564 253.049 215.33C251.938 208.406 250.31 201.11 248.293 193.58C254.059 191.877 259.636 190.073 264.779 188.062C278.872 182.554 290.534 175.95 299.025 168.107C307.517 160.264 313 150.759 313 140.308C313 129.856 307.517 120.337 299.025 112.495C290.534 104.653 278.872 98.0618 264.779 92.5528C260.042 90.7013 254.929 89.0262 249.661 87.4346C251.052 81.7446 252.287 76.1533 253.142 70.8297C255.589 55.5828 255.848 41.9594 253.408 30.5068C250.967 19.0536 245.524 9.38635 236.404 4.11656C231.844 1.48161 226.789 0.200213 221.486 0.021759ZM220.862 13.8749C224.189 13.9659 227.028 14.7585 229.457 16.1615C234.313 18.9677 237.903 24.4294 239.818 33.4179C241.733 42.4069 241.667 54.5516 239.406 68.6356C238.632 73.4577 237.508 78.5686 236.231 83.8053C222.322 80.4552 207.083 77.9679 190.84 76.5061C182.679 65.1913 174.292 54.8987 165.839 45.7554C170.308 41.3893 174.749 37.3057 179.083 33.7769C190.14 24.7754 200.608 18.6504 209.344 15.8159C213.712 14.3987 217.534 13.7838 220.862 13.8749ZM91.7932 13.9147C95.1401 13.8212 98.9699 14.4345 103.351 15.8558C112.111 18.6984 122.598 24.8208 133.665 33.8302C137.911 37.287 142.254 41.2815 146.63 45.5426C138.115 54.7586 129.669 65.159 121.457 76.573C105.271 78.0615 90.0855 80.5721 76.2377 83.9381C74.9687 78.7268 73.86 73.6364 73.0892 68.8353C70.8266 54.7388 70.7699 42.5788 72.6907 33.5642C74.611 24.5497 78.2305 19.0601 83.1321 16.228C85.5829 14.812 88.4463 14.0082 91.7932 13.9147ZM156.341 55.5539C161.881 61.5876 167.424 68.192 172.919 75.2967C167.518 75.071 162.052 74.9377 156.5 74.9377C150.837 74.9377 145.267 75.0755 139.762 75.3098C145.26 68.1994 150.799 61.5927 156.341 55.5539ZM156.5 88.6842C165.749 88.6842 174.764 89.0648 183.533 89.708C189.567 98.3812 195.463 107.582 201.081 117.321C206.018 125.878 210.486 134.423 214.552 142.86C210.442 151.41 205.9 160.07 200.895 168.745C196.49 176.382 191.889 183.635 187.213 190.628C177.308 191.456 167.045 191.918 156.5 191.918C145.702 191.918 135.208 191.429 125.083 190.562C120.485 183.669 115.962 176.512 111.626 168.998C106.633 160.342 102.113 151.711 98.0103 143.179C102.13 134.599 106.67 125.907 111.693 117.202C117.282 107.514 123.16 98.3659 129.162 89.7347C138.024 89.0767 147.144 88.6842 156.5 88.6842ZM201.055 91.4098C212.262 92.8097 222.785 94.7542 232.578 97.0867C229.671 106.624 226.09 116.586 221.752 126.867C218.935 121.432 216.017 115.979 212.864 110.514C209.046 103.895 205.076 97.5751 201.055 91.4098ZM111.228 91.5158C107.289 97.5694 103.414 103.76 99.6704 110.248C96.4777 115.783 93.4998 121.31 90.6506 126.814C86.3492 116.595 82.7904 106.689 79.9037 97.2064C89.6281 94.8688 100.094 92.9322 111.228 91.5158ZM246.035 100.703C250.856 102.162 255.513 103.686 259.784 105.356C272.776 110.434 283.053 116.448 289.713 122.599C296.374 128.75 299.264 134.617 299.264 140.308C299.264 145.999 296.374 151.865 289.713 158.016C283.053 164.168 272.776 170.181 259.784 175.259C255.037 177.115 249.822 178.797 244.401 180.391C240.533 168.42 235.597 155.929 229.722 143.179C236.477 128.541 241.934 114.268 246.035 100.703ZM66.7395 100.769C70.7931 114.199 76.1805 128.33 82.8397 142.821C76.9264 155.645 71.9653 168.206 68.081 180.245C62.8502 178.693 57.812 177.056 53.2159 175.259C40.2242 170.181 29.9476 164.168 23.287 158.016C16.6264 151.865 13.7357 145.999 13.7357 140.308C13.7357 134.617 16.6264 128.75 23.287 122.599C29.9476 116.448 40.2242 110.434 53.2159 105.356C57.4215 103.712 62 102.21 66.7395 100.769ZM156.5 109.038C137.799 109.038 122.493 124.357 122.493 143.073C122.493 161.789 137.799 177.107 156.5 177.107C175.201 177.107 190.507 161.789 190.507 143.073C190.507 124.357 175.201 109.038 156.5 109.038ZM156.5 122.652C167.849 122.652 176.904 131.715 176.904 143.073C176.904 154.431 167.849 163.494 156.5 163.494C145.151 163.494 136.096 154.431 136.096 143.073C136.096 131.715 145.151 122.652 156.5 122.652ZM221.924 159.159C225.491 167.608 228.592 175.875 231.197 183.848C223.017 185.746 214.307 187.346 205.146 188.607C207.784 184.396 210.388 180.106 212.931 175.698C216.119 170.172 219.079 164.654 221.924 159.159ZM90.8104 159.173C93.6704 164.701 96.6489 170.244 99.8563 175.805C102.368 180.158 104.932 184.407 107.535 188.567C98.4008 187.3 89.7182 185.695 81.5644 183.795C84.1574 175.847 87.2595 167.597 90.8104 159.173ZM77.6456 197.01C89.9551 199.928 103.297 202.17 117.445 203.631C126.891 217.304 136.726 229.584 146.63 240.324C142.202 244.644 137.814 248.7 133.518 252.196C122.461 261.198 111.98 267.31 103.244 270.144C94.5081 272.978 87.9884 272.604 83.1321 269.798C78.2753 266.992 74.6989 261.531 72.7837 252.541C70.8685 243.553 70.9212 231.421 73.1821 217.337C74.2075 210.948 75.7406 204.106 77.6456 197.01ZM235.129 197.063C237.048 204.199 238.587 211.073 239.618 217.497C241.882 231.593 241.938 243.74 240.017 252.754C238.097 261.769 234.491 267.272 229.589 270.104C224.688 272.936 218.118 273.319 209.358 270.476C200.596 267.633 190.11 261.498 179.043 252.489C174.717 248.967 170.299 244.892 165.839 240.536C175.807 229.756 185.716 217.409 195.223 203.657C209.406 202.206 222.785 199.977 235.129 197.063ZM135.192 205.027C142.176 205.407 149.251 205.665 156.5 205.665C163.509 205.665 170.355 205.422 177.117 205.066C170.204 214.4 163.159 222.885 156.141 230.526C149.128 222.868 142.096 214.368 135.192 205.027Z" fill="white"/>
</svg>
