<svg width="51" height="51" viewBox="0 0 51 51" fill="none" xmlns="http://www.w3.org/2000/svg">
<g id="github" clip-path="url(#clip0_4_44)">
<path id="Vector" d="M25.5 48.7679C38.4998 48.7679 49.0385 38.2745 49.0385 25.3304C49.0385 12.3862 38.4998 1.89294 25.5 1.89294C12.5 1.89294 1.96153 12.3862 1.96153 25.3304C1.96153 38.2745 12.5 48.7679 25.5 48.7679Z" stroke="white" stroke-width="4" stroke-linecap="round" stroke-linejoin="round"/>
<path id="Vector_2" d="M30.9922 41.7367V37.3703C31.0511 36.6449 30.9501 35.9155 30.6956 35.2309C30.4414 34.5463 30.0396 33.9219 29.5173 33.3995C34.4446 32.867 39.6231 31.0565 39.6231 22.7497C39.6226 20.6255 38.7799 18.5828 37.2692 17.0444C37.9846 15.186 37.934 13.1319 37.128 11.3087C37.128 11.3087 35.2762 10.7762 30.9922 13.5604C27.3956 12.6153 23.6044 12.6153 20.0077 13.5604C15.7237 10.7762 13.872 11.3087 13.872 11.3087C13.066 13.1319 13.0154 15.186 13.7308 17.0444C12.2088 18.5942 11.3652 20.6554 11.3769 22.7952C11.3769 31.0412 16.5554 32.8518 21.4827 33.445C20.9665 33.9622 20.5683 34.5791 20.3142 35.2555C20.06 35.9317 19.9556 36.6522 20.0077 37.3703V41.7367" stroke="white" stroke-width="4" stroke-linecap="round" stroke-linejoin="round"/>
<path id="Vector_3" d="M20.0077 38.694C15.3 40.1746 11.3769 38.694 9.02307 34.1298" stroke="white" stroke-width="4" stroke-linecap="round" stroke-linejoin="round"/>
</g>
<defs>
<clipPath id="clip0_4_44">
<rect width="51" height="50" fill="white" transform="translate(0 0.330444)"/>
</clipPath>
</defs>
</svg>
