<svg width="286" height="286" viewBox="0 0 286 286" fill="none" xmlns="http://www.w3.org/2000/svg">
<path d="M259.672 0H25.9672C11.6203 0 0 11.635 0 26V260C0 274.365 11.6203 286 25.9672 286H259.672C274.019 286 285.639 274.365 285.639 260V26C285.639 11.635 274.019 0 259.672 0ZM142.82 212.94C142.82 236.041 128.668 248.989 105.167 248.989C81.9525 248.989 67.1642 235.404 67.1642 213.434H92.3134C92.3784 221.585 97.2342 226.733 104.739 226.733C112.451 226.733 116.593 221.871 116.593 212.719V142.974H142.82V212.94ZM213.983 248.989C187.899 248.989 171.487 236.691 171.046 216.801H196.052C196.689 224.315 204.18 229.099 215.047 229.099C224.837 229.099 231.563 224.38 231.563 217.581C231.563 211.861 227.057 208.78 215.268 206.427L201.7 203.71C182.835 200.135 173.123 189.839 173.123 173.602C173.123 153.426 189.275 140.192 214.126 140.192C238.275 140.192 254.985 153.283 255.414 172.38H231.199C230.628 165.087 223.695 160.004 214.463 160.004C205.258 160.004 199.194 164.372 199.194 171.236C199.194 176.891 203.765 180.18 214.619 182.325L227.888 184.899C248.26 188.838 257.4 198.055 257.4 214.435C257.413 235.976 240.989 248.989 213.983 248.989Z" fill="white"/>
</svg>
